<svg width="24" height="24" viewBox="0 0 24 24" fill="none" xmlns="http://www.w3.org/2000/svg">
<path fill-rule="evenodd" clip-rule="evenodd" d="M20 0C21.0609 0 22.0783 0.421427 22.8284 1.17157C23.5786 1.92172 24 2.93913 24 4V20C24 21.0609 23.5786 22.0783 22.8284 22.8284C22.0783 23.5786 21.0609 24 20 24H4C2.93913 24 1.92172 23.5786 1.17157 22.8284C0.421427 22.0783 0 21.0609 0 20V4C0 2.93913 0.421427 1.92172 1.17157 1.17157C1.92172 0.421427 2.93913 0 4 0H20ZM6.66667 9.33333C6.31305 9.33333 5.97391 9.47381 5.72386 9.72386C5.47381 9.97391 5.33333 10.313 5.33333 10.6667V17.3333C5.33333 17.687 5.47381 18.0261 5.72386 18.2761C5.97391 18.5262 6.31305 18.6667 6.66667 18.6667C7.02029 18.6667 7.35943 18.5262 7.60948 18.2761C7.85952 18.0261 8 17.687 8 17.3333V10.6667C8 10.313 7.85952 9.97391 7.60948 9.72386C7.35943 9.47381 7.02029 9.33333 6.66667 9.33333ZM10.6667 8C10.313 8 9.97391 8.14048 9.72386 8.39052C9.47381 8.64057 9.33333 8.97971 9.33333 9.33333V17.3333C9.33333 17.687 9.47381 18.0261 9.72386 18.2761C9.97391 18.5262 10.313 18.6667 10.6667 18.6667C11.0203 18.6667 11.3594 18.5262 11.6095 18.2761C11.8595 18.0261 12 17.687 12 17.3333V12.4533C12.4067 11.9947 13.0933 11.456 13.8573 11.1293C14.3013 10.94 14.9693 10.8627 15.4333 11.0093C15.5873 11.0484 15.7244 11.1363 15.824 11.26C15.8933 11.3533 16 11.5613 16 12V17.3333C16 17.687 16.1405 18.0261 16.3905 18.2761C16.6406 18.5262 16.9797 18.6667 17.3333 18.6667C17.687 18.6667 18.0261 18.5262 18.2761 18.2761C18.5262 18.0261 18.6667 17.687 18.6667 17.3333V12C18.6667 11.1067 18.44 10.312 17.968 9.67467C17.5337 9.09674 16.9258 8.67297 16.2333 8.46533C15.0307 8.088 13.6987 8.29733 12.8093 8.67867C12.5246 8.80113 12.2473 8.94003 11.9787 9.09467C11.9228 8.78745 11.7608 8.5096 11.5211 8.30955C11.2813 8.1095 10.9789 7.99995 10.6667 8ZM6.66667 5.33333C6.31305 5.33333 5.97391 5.47381 5.72386 5.72386C5.47381 5.97391 5.33333 6.31305 5.33333 6.66667C5.33333 7.02029 5.47381 7.35943 5.72386 7.60948C5.97391 7.85952 6.31305 8 6.66667 8C7.02029 8 7.35943 7.85952 7.60948 7.60948C7.85952 7.35943 8 7.02029 8 6.66667C8 6.31305 7.85952 5.97391 7.60948 5.72386C7.35943 5.47381 7.02029 5.33333 6.66667 5.33333Z" fill="#212121"/>
</svg>
