<svg width="152" height="62" viewBox="0 0 152 62" fill="none" xmlns="http://www.w3.org/2000/svg">
<path d="M134.643 46.1864C131.25 46.1864 128.267 45.4898 125.695 44.0967C123.159 42.7036 121.177 40.7925 119.748 38.3635C118.355 35.8987 117.658 33.1125 117.658 30.0048C117.658 26.8613 118.355 24.0751 119.748 21.646C121.177 19.217 123.159 17.3059 125.695 15.9128C128.267 14.5197 131.25 13.8231 134.643 13.8231C138.108 13.8231 141.109 14.5197 143.645 15.9128C146.181 17.3059 148.146 19.217 149.539 21.646C150.968 24.0751 151.682 26.8613 151.682 30.0048C151.682 33.1125 150.968 35.8987 149.539 38.3635C148.146 40.7925 146.181 42.7036 143.645 44.0967C141.109 45.4898 138.108 46.1864 134.643 46.1864ZM134.643 41.4176C136.93 41.4176 138.894 40.9533 140.537 40.0245C142.216 39.0958 143.52 37.792 144.449 36.1131C145.413 34.3985 145.896 32.3802 145.896 30.0583C145.896 27.7722 145.413 25.7718 144.449 24.0572C143.52 22.3069 142.216 20.9673 140.537 20.0386C138.894 19.0741 136.93 18.5919 134.643 18.5919C132.393 18.5919 130.428 19.0741 128.75 20.0386C127.071 20.9673 125.767 22.3069 124.838 24.0572C123.945 25.7718 123.499 27.7722 123.499 30.0583C123.499 32.3802 123.945 34.3985 124.838 36.1131C125.767 37.792 127.071 39.0958 128.75 40.0245C130.428 40.9533 132.393 41.4176 134.643 41.4176Z" fill="#212121"/>
<path d="M83.6401 45.6505V41.5783H87.3372V18.4847H83.6401V14.4125H100.465C104.18 14.4125 106.966 15.1805 108.823 16.7165C110.717 18.2525 111.663 20.5565 111.663 23.6285C111.663 26.7362 110.717 29.0581 108.823 30.5941C106.93 32.0944 104.305 32.8445 100.947 32.8445H99.9825L104.108 30.862L110.752 41.5783H114.771V45.6505H106.627L98.6965 32.8445H95.3745V28.7723H99.5003C101.822 28.7723 103.447 28.3258 104.376 27.4328C105.341 26.5041 105.823 25.236 105.823 23.6285C105.823 22.0211 105.359 20.7708 104.43 19.8778C103.501 18.949 101.858 18.4847 99.5003 18.4847H92.9633V41.5783H96.6604V45.6505H83.6401Z" fill="#212121"/>
<path d="M66.7912 45.6505V41.5783H70.4883V18.4847H66.7912V14.4125H79.8115V18.4847H76.1144V41.5783H79.8115V45.6505H66.7912Z" fill="#212121"/>
<path d="M29.012 45.6505V41.5783H32.7091V18.4847H29.012V14.4125H42.0323V18.4847H38.3352V27.8079H53.6059V18.4847H49.8552V14.4125H62.9291V18.4847H59.232V41.5783H62.9291V45.6505H49.8552V41.5783H53.6059V31.7193H38.3352V41.5783H42.0323V45.6505H29.012Z" fill="#212121"/>
<path d="M13.3954 46.1864C10.7878 46.1864 8.60878 45.7578 6.85845 44.9005C5.14384 44.0074 3.87574 42.7036 3.05415 40.989L4.01862 41.4177V45.6506H0.160747V35.2022H3.85788C4.00076 37.4169 4.67946 39.0958 5.89398 40.2389C7.10849 41.3819 9.21604 41.9535 12.2166 41.9535C14.6456 41.9535 16.3781 41.5248 17.414 40.6675C18.4857 39.7745 19.0215 38.7029 19.0215 37.4526C19.0215 36.3095 18.6464 35.4165 17.8963 34.7735C17.1461 34.0948 15.8423 33.5769 13.9848 33.2197L8.41231 32.0945C5.73323 31.5944 3.66141 30.5942 2.19685 29.0939C0.732284 27.5936 1.88396e-06 25.6468 1.88396e-06 23.2535C1.88396e-06 21.5389 0.410794 19.9672 1.23238 18.5383C2.05396 17.1095 3.28634 15.9843 4.92951 15.1627C6.57268 14.3054 8.60878 13.8767 11.0378 13.8767C13.3597 13.8767 15.3065 14.3232 16.8782 15.2163C18.4857 16.0736 19.6644 17.3595 20.4146 19.0741H19.4501V14.4125H23.308V23.5214H19.6109C19.468 21.9497 18.7536 20.6637 17.4676 19.6635C16.2174 18.6276 14.3956 18.1097 12.0023 18.1097C10.5377 18.1097 9.34106 18.3061 8.41231 18.6991C7.48357 19.092 6.80487 19.6278 6.37621 20.3065C5.98328 20.9495 5.78682 21.6639 5.78682 22.4498C5.78682 23.5214 6.16189 24.3966 6.91203 25.0753C7.66217 25.754 8.89455 26.2541 10.6092 26.5755L16.1816 27.6472C19.0036 28.2187 21.1469 29.201 22.6114 30.5942C24.076 31.9873 24.8083 33.9877 24.8083 36.5953C24.8083 38.3814 24.3618 40.0067 23.4687 41.4712C22.6114 42.9001 21.3433 44.0431 19.6645 44.9005C17.9856 45.7578 15.8959 46.1864 13.3954 46.1864Z" fill="#212121"/>
<path d="M78.2834 5.26793C78.2834 8.17732 75.9248 10.5359 73.0154 10.5359C70.106 10.5359 67.7475 8.17732 67.7475 5.26793C67.7475 2.35853 70.106 0 73.0154 0C75.9248 0 78.2834 2.35853 78.2834 5.26793Z" fill="#E84911"/>
<path d="M146.466 62C145.567 62 144.773 61.8174 144.085 61.4521C143.41 61.0728 142.884 60.5531 142.504 59.8928C142.125 59.2326 141.935 58.4599 141.935 57.5749C141.935 56.6899 142.125 55.9243 142.504 55.2781C142.884 54.6179 143.41 54.1051 144.085 53.7399C144.773 53.3746 145.567 53.192 146.466 53.192C147.379 53.192 148.173 53.3746 148.847 53.7399C149.535 54.1051 150.069 54.6179 150.448 55.2781C150.828 55.9243 151.017 56.6829 151.017 57.5539C151.017 58.4389 150.828 59.2185 150.448 59.8928C150.069 60.5531 149.535 61.0728 148.847 61.4521C148.173 61.8174 147.379 62 146.466 62ZM146.466 60.4618C147 60.4618 147.456 60.3424 147.836 60.1035C148.229 59.8647 148.531 59.5276 148.742 59.0921C148.966 58.6566 149.079 58.1439 149.079 57.5539C149.079 56.9779 148.966 56.4792 148.742 56.0578C148.531 55.6363 148.229 55.3132 147.836 55.0885C147.456 54.8497 147 54.7303 146.466 54.7303C145.946 54.7303 145.49 54.8497 145.096 55.0885C144.717 55.3132 144.422 55.6434 144.211 56.0788C144 56.5003 143.895 56.999 143.895 57.5749C143.895 58.1509 144 58.6566 144.211 59.0921C144.422 59.5276 144.717 59.8647 145.096 60.1035C145.49 60.3424 145.946 60.4618 146.466 60.4618Z" fill="#212121"/>
<path d="M136.152 61.7472V60.4407H137.627V54.7303H136.173V53.4238H139.586V60.4407H140.977V61.7472H136.152ZM138.406 51.6749C138.027 51.6749 137.711 51.5625 137.458 51.3377C137.205 51.0989 137.079 50.7969 137.079 50.4317C137.079 50.0524 137.205 49.7503 137.458 49.5256C137.711 49.2868 138.027 49.1674 138.406 49.1674C138.786 49.1674 139.095 49.2868 139.333 49.5256C139.586 49.7503 139.713 50.0524 139.713 50.4317C139.727 50.7969 139.607 51.0989 139.354 51.3377C139.102 51.5625 138.786 51.6749 138.406 51.6749Z" fill="#212121"/>
<path d="M129.502 61.9789C128.743 61.9789 128.048 61.8033 127.416 61.4521C126.798 61.1009 126.299 60.5952 125.92 59.935C125.554 59.2607 125.372 58.474 125.372 57.5749C125.372 56.6478 125.547 55.8611 125.899 55.2149C126.264 54.5687 126.748 54.077 127.352 53.7399C127.971 53.3887 128.645 53.2131 129.375 53.2131C129.993 53.2131 130.583 53.3325 131.145 53.5713C131.707 53.7961 132.192 54.1121 132.599 54.5195L132.094 54.7092V50.8952H130.661V49.5887H134.074V60.4407H135.318V61.7471H132.157L132.136 60.6725H132.705C132.297 61.0799 131.827 61.403 131.293 61.6418C130.773 61.8665 130.176 61.9789 129.502 61.9789ZM130.071 60.4828C130.576 60.4828 131.04 60.3915 131.461 60.2089C131.883 60.0122 132.269 59.7453 132.62 59.4082L132.094 60.23V55.0042L132.599 55.847C132.22 55.4818 131.792 55.2008 131.314 55.0042C130.85 54.8075 130.387 54.7092 129.923 54.7092C129.432 54.7092 128.996 54.8216 128.617 55.0463C128.252 55.2711 127.957 55.6082 127.732 56.0578C127.521 56.4932 127.416 57.0341 127.416 57.6803C127.416 58.2703 127.535 58.776 127.774 59.1974C128.013 59.6189 128.329 59.942 128.722 60.1667C129.115 60.3775 129.565 60.4828 130.071 60.4828Z" fill="#212121"/>
<path d="M118.237 61.9579C117.591 61.9579 117.057 61.8314 116.636 61.5786C116.228 61.3117 115.926 60.9675 115.73 60.5461C115.533 60.1106 115.435 59.64 115.435 59.1343V54.7303H114.149V53.4238H117.437V58.8814C117.437 59.3731 117.549 59.7664 117.774 60.0614C118.013 60.3424 118.378 60.4829 118.869 60.4829C119.417 60.4829 119.923 60.3564 120.387 60.1036C120.864 59.8367 121.314 59.4714 121.735 59.0078L121.208 59.9771V54.7303H119.86V53.4238H123.168V60.4407H124.601V61.7472H121.314L121.229 60.4407L121.841 60.2932C121.293 60.813 120.717 61.2204 120.113 61.5154C119.523 61.8104 118.898 61.9579 118.237 61.9579Z" fill="#212121"/>
<path d="M111.608 61.7471C110.793 61.7471 110.175 61.5505 109.753 61.1571C109.332 60.7497 109.121 60.1246 109.121 59.2817V54.7302H107.836V53.4238H109.121V50.6213L111.102 50.0312V53.4238H113.209V54.7302H111.102V59.071C111.102 59.5627 111.179 59.9139 111.334 60.1246C111.502 60.3213 111.783 60.4196 112.177 60.4196H113.357V61.7471H111.608Z" fill="#212121"/>
<path d="M103.464 61.9579C103.015 61.9579 102.579 61.9017 102.158 61.7893C101.75 61.6769 101.392 61.5154 101.083 61.3047C100.788 61.094 100.563 60.8551 100.409 60.5882L100.788 60.7147V61.7472H99.3762V58.9025H100.662L100.788 60.2089L100.43 59.2818C100.626 59.7454 100.978 60.1036 101.483 60.3564C101.989 60.6093 102.523 60.7357 103.085 60.7357C103.562 60.7357 103.956 60.6444 104.265 60.4618C104.588 60.2651 104.749 59.9982 104.749 59.6611C104.749 59.2537 104.609 58.9727 104.328 58.8182C104.047 58.6496 103.598 58.4951 102.979 58.3546L101.926 58.1439C101.097 57.9332 100.458 57.6522 100.008 57.301C99.5728 56.9499 99.3551 56.3879 99.3551 55.6153C99.3551 54.8567 99.6431 54.2667 100.219 53.8453C100.809 53.4239 101.547 53.2131 102.432 53.2131C102.811 53.2131 103.19 53.2623 103.569 53.3606C103.963 53.459 104.307 53.6065 104.602 53.8031C104.911 53.9858 105.122 54.2035 105.234 54.4564L104.813 54.3932V53.3817H106.267V56.1842H104.96L104.728 54.3721L105.108 55.5942C105.037 55.3695 104.876 55.1728 104.623 55.0042C104.384 54.8357 104.103 54.7022 103.78 54.6039C103.457 54.5055 103.134 54.4564 102.811 54.4564C102.418 54.4564 102.059 54.5407 101.736 54.7092C101.427 54.8778 101.273 55.1377 101.273 55.4889C101.273 55.7839 101.385 56.0086 101.61 56.1632C101.835 56.3177 102.2 56.4512 102.705 56.5635L103.717 56.7953C104.293 56.9218 104.792 57.0833 105.213 57.28C105.649 57.4626 105.986 57.7295 106.224 58.0807C106.477 58.4178 106.604 58.8884 106.604 59.4925C106.604 60.0404 106.456 60.5039 106.161 60.8832C105.866 61.2485 105.48 61.5224 105.002 61.705C104.525 61.8736 104.012 61.9579 103.464 61.9579Z" fill="#212121"/>
</svg>
