<svg width="100" height="31" viewBox="0 0 100 31" fill="none" xmlns="http://www.w3.org/2000/svg">
<path d="M88.4738 30.3488C86.2439 30.3488 84.284 29.8911 82.594 28.9757C80.9275 28.0603 79.6248 26.8045 78.6859 25.2084C77.7705 23.5888 77.3127 21.758 77.3127 19.7159C77.3127 17.6504 77.7705 15.8195 78.6859 14.2234C79.6248 12.6273 80.9275 11.3715 82.594 10.4561C84.284 9.54072 86.2439 9.08301 88.4738 9.08301C90.7506 9.08301 92.7222 9.54072 94.3888 10.4561C96.0553 11.3715 97.3463 12.6273 98.2617 14.2234C99.2006 15.8195 99.67 17.6504 99.67 19.7159C99.67 21.758 99.2006 23.5888 98.2617 25.2084C97.3463 26.8045 96.0553 28.0603 94.3888 28.9757C92.7222 29.8911 90.7506 30.3488 88.4738 30.3488ZM88.4738 27.2153C89.976 27.2153 91.267 26.9101 92.3467 26.2999C93.4499 25.6896 94.3066 24.8329 94.9169 23.7297C95.5506 22.603 95.8675 21.2768 95.8675 19.7511C95.8675 18.2489 95.5506 16.9345 94.9169 15.8078C94.3066 14.6577 93.4499 13.7774 92.3467 13.1672C91.267 12.5334 89.976 12.2165 88.4738 12.2165C86.995 12.2165 85.7041 12.5334 84.6009 13.1672C83.4977 13.7774 82.6409 14.6577 82.0307 15.8078C81.4438 16.9345 81.1504 18.2489 81.1504 19.7511C81.1504 21.2768 81.4438 22.603 82.0307 23.7297C82.6409 24.8329 83.4977 25.6896 84.6009 26.2999C85.7041 26.9101 86.995 27.2153 88.4738 27.2153Z" fill="#F4F3EE"/>
<path d="M54.9596 29.9967V27.3208H57.389V12.146H54.9596V9.47021H66.015C68.4561 9.47021 70.2869 9.97487 71.5075 10.9842C72.7515 11.9935 73.3735 13.5074 73.3735 15.526C73.3735 17.5681 72.7515 19.0938 71.5075 20.1031C70.2635 21.089 68.5383 21.5819 66.3319 21.5819H65.6981L68.4092 20.2792L72.775 27.3208H75.4156V29.9967H70.064L64.8531 21.5819H62.6702V18.906H65.3813C66.9069 18.906 67.9749 18.6126 68.5852 18.0258C69.219 17.4156 69.5358 16.5823 69.5358 15.526C69.5358 14.4698 69.2307 13.6483 68.6204 13.0615C68.0101 12.4512 66.9304 12.146 65.3813 12.146H61.0858V27.3208H63.5152V29.9967H54.9596Z" fill="#F4F3EE"/>
<path d="M43.8883 29.9967V27.3208H46.3177V12.146H43.8883V9.47021H52.4439V12.146H50.0146V27.3208H52.4439V29.9967H43.8883Z" fill="#F4F3EE"/>
<path d="M19.0637 29.9967V27.3208H21.4931V12.146H19.0637V9.47021H27.6193V12.146H25.19V18.2723H35.2243V12.146H32.7597V9.47021H41.3506V12.146H38.9212V27.3208H41.3506V29.9967H32.7597V27.3208H35.2243V20.8425H25.19V27.3208H27.6193V29.9967H19.0637Z" fill="#F4F3EE"/>
<path d="M8.80207 30.3488C7.0886 30.3488 5.6568 30.0671 4.50666 29.5038C3.38 28.917 2.54673 28.0602 2.00687 26.9336L2.64062 27.2152V29.9967H0.105625V23.1311H2.535C2.62889 24.5863 3.07486 25.6895 3.87291 26.4406C4.67097 27.1918 6.05583 27.5673 8.02749 27.5673C9.6236 27.5673 10.762 27.2856 11.4427 26.7223C12.1469 26.1355 12.4989 25.4313 12.4989 24.6098C12.4989 23.8587 12.2525 23.2719 11.7596 22.8494C11.2667 22.4034 10.4099 22.0631 9.18936 21.8284L5.5277 21.089C3.76729 20.7604 2.4059 20.1032 1.44354 19.1173C0.48118 18.1315 0 16.8523 0 15.2796C0 14.153 0.26993 13.1202 0.80979 12.1813C1.34965 11.2424 2.15944 10.503 3.23916 9.96316C4.31888 9.39983 5.6568 9.11816 7.25291 9.11816C8.7786 9.11816 10.0578 9.41157 11.0906 9.99837C12.1469 10.5617 12.9214 11.4067 13.4144 12.5334H12.7806V9.47025H15.3156V15.4557H12.8862C12.7923 14.4229 12.3229 13.5779 11.4779 12.9207C10.6564 12.24 9.4593 11.8996 7.88666 11.8996C6.9243 11.8996 6.13798 12.0287 5.5277 12.2869C4.91743 12.5451 4.47145 12.8972 4.18979 13.3432C3.93159 13.7657 3.8025 14.2351 3.8025 14.7515C3.8025 15.4557 4.04895 16.0307 4.54187 16.4767C5.03479 16.9227 5.84458 17.2513 6.97124 17.4625L10.6329 18.1667C12.4872 18.5423 13.8955 19.1877 14.8579 20.1032C15.8203 21.0186 16.3014 22.333 16.3014 24.0465C16.3014 25.2201 16.008 26.2881 15.4212 27.2504C14.8579 28.1893 14.0246 28.9404 12.9214 29.5038C11.8183 30.0671 10.4451 30.3488 8.80207 30.3488Z" fill="#F4F3EE"/>
<path d="M51.4398 3.46154C51.4398 5.37329 49.89 6.92308 47.9783 6.92308C46.0665 6.92308 44.5167 5.37329 44.5167 3.46154C44.5167 1.54978 46.0665 0 47.9783 0C49.89 0 51.4398 1.54978 51.4398 3.46154Z" fill="#F4F3EE"/>
</svg>
