<svg width="487" height="352" viewBox="0 0 487 352" fill="none" xmlns="http://www.w3.org/2000/svg">
<path d="M168.846 193.171C168.846 105.452 239.956 34.3413 327.675 34.3413C415.394 34.3413 486.504 105.452 486.504 193.171C486.504 280.89 415.394 352 327.675 352C239.956 352 168.846 280.89 168.846 193.171Z" fill="#E9E8E0"/>
<path d="M0 121.984C0 54.614 54.614 0 121.984 0C189.353 0 243.967 54.614 243.967 121.984C243.967 189.353 189.353 243.967 121.984 243.967C54.614 243.967 0 189.353 0 121.984Z" fill="#E9E8E0"/>
<path d="M178.504 248.951V228.211H197.333V110.597H178.504V89.8572H244.816V110.597H225.987V228.211H244.816V248.951H178.504Z" fill="#212121"/>
<path d="M237.033 43.2846C237.033 58.102 225.021 70.1139 210.204 70.1139C195.386 70.1139 183.375 58.102 183.375 43.2846C183.375 28.4672 195.386 16.4553 210.204 16.4553C225.021 16.4553 237.033 28.4672 237.033 43.2846Z" fill="#E84911"/>
</svg>
